<?xml version="1.0" encoding="utf-8"?>
<!-- Generator: Adobe Illustrator 26.2.1, SVG Export Plug-In . SVG Version: 6.00 Build 0)  -->
<svg version="1.1" id="Calque_1" xmlns="http://www.w3.org/2000/svg" xmlns:xlink="http://www.w3.org/1999/xlink" x="0px" y="0px"
	 viewBox="0 0 385.2 120.8" style="enable-background:new 0 0 385.2 120.8;" xml:space="preserve">
<style type="text/css">
	.st0{fill:#140A67;}
	.st1{fill:#BB98F2;}
</style>
<g>
	<g>
		<g>
			<g>
				<path class="st0" d="M83.3,63.5c1.5-7.4-0.4-15-5.2-20.9c-4.8-5.8-11.9-9.2-19.4-9.2H36.4L34.7,42h8.7h15.4
					c10.5,0,18.3,9.6,16.2,19.8c-2.4,12.1-13,20.8-25.4,20.8h-1.1l-1.7,8.5h2.8C65.9,91.1,80.1,79.5,83.3,63.5z"/>
				<path class="st0" d="M28.4,73.2L34.7,42H34h-8L20,71.5c-0.5,2.7,0.1,5.4,1.9,7.5c1.7,2.1,4.3,3.3,7,3.3h19.5l1.7-8.5H28.9
					C28.6,73.8,28.3,73.5,28.4,73.2z"/>
			</g>
			<path class="st1" d="M93.3,31.6c0,4.5-3.3,7.5-8.2,7.5c-4.3,0-7.1-2.8-7.1-6.4c0-4.1,3.2-7.3,8.1-7.3
				C90.3,25.5,93.3,28.2,93.3,31.6z"/>
		</g>
		<g>
			<g>
				<g>
					<path class="st1" d="M330,72.2l7-6.2c2.9-2.6,4-4.1,4-6c0-2.3-1.8-3.7-3.9-3.7c-2.2,0-3.6,1.2-5.2,3.3l-1.6-1.2
						c1.7-2.6,3.5-4.1,6.9-4.1c3.5,0,6,2.3,6,5.4v0.1c0,2.8-1.5,4.5-4.9,7.5l-5.1,4.6h7.7v2H330V72.2z"/>
				</g>
				<g>
					<path class="st1" d="M346.3,64.3L346.3,64.3c0-5.4,4-10,9.8-10c5.9,0,9.8,4.6,9.8,9.9v0.1c0,5.3-4,10-9.8,10
						C350.2,74.2,346.3,69.6,346.3,64.3z M363.6,64.3L363.6,64.3c0-4.4-3.2-8-7.6-8c-4.4,0-7.5,3.5-7.5,7.9v0.1
						c0,4.4,3.2,7.9,7.6,7.9C360.5,72.2,363.6,68.7,363.6,64.3z"/>
				</g>
			</g>
			<g>
				<path class="st0" d="M149,48.7h-5v4h5c5.3,0,8.8,3.6,8.8,8.6v0.1c0,4.9-3.5,8.5-8.8,8.5h-5V52.7h-4.4v21.2h9.4
					c7.9,0,13.4-5.5,13.4-12.6v-0.1C162.4,54.1,156.9,48.7,149,48.7z"/>
			</g>
			<g>
				<g>
					<path class="st0" d="M166.1,54.8h4.4v19h-4.4V54.8z"/>
				</g>
				<g>
					<ellipse class="st0" cx="168.3" cy="49.8" rx="2.6" ry="2.3"/>
				</g>
			</g>
			<g>
				<g>
					<path class="st0" d="M215,54.8h4.4v19H215V54.8z"/>
				</g>
				<g>
					<ellipse class="st0" cx="217.2" cy="49.8" rx="2.6" ry="2.3"/>
				</g>
			</g>
			<g>
				<g>
					<path class="st0" d="M173.1,71.5l1.9-3c2.1,1.5,4.3,2.3,6.2,2.3c1.9,0,3-0.8,3-2.1v-0.1c0-1.5-2-2-4.3-2.7
						c-2.8-0.8-5.9-1.9-5.9-5.6v-0.1c0-3.6,3-5.8,6.8-5.8c2.4,0,5,0.8,7,2.2l-1.7,3.1c-1.8-1.1-3.8-1.8-5.4-1.8
						c-1.7,0-2.7,0.8-2.7,1.9V60c0,1.4,2.1,2,4.3,2.7c2.8,0.9,5.9,2.1,5.9,5.6v0.1c0,4-3.1,6-7.1,6
						C178.5,74.3,175.5,73.3,173.1,71.5z"/>
				</g>
				<g>
					<path class="st0" d="M190.9,68.7v-19h4.4v5.2h5.1v3.7h-5.1V68c0,1.7,0.9,2.4,2.3,2.4c1,0,1.8-0.2,2.7-0.7v3.6
						c-1.1,0.6-2.3,1-3.9,1C193.2,74.3,190.9,72.9,190.9,68.7z"/>
				</g>
				<g>
					<path class="st0" d="M245.3,67V54.9h4.4v10.8c0,3,1.5,4.6,4.1,4.6c2.5,0,4.3-1.7,4.3-4.7V54.9h4.4v19H258v-3
						c-1.2,1.8-3,3.4-5.9,3.4C247.8,74.3,245.3,71.4,245.3,67z"/>
				</g>
				<g>
					<path class="st0" d="M265.8,68.7v-19h4.4v5.2h5.1v3.7h-5.1V68c0,1.7,0.9,2.4,2.3,2.4c1,0,1.8-0.2,2.7-0.7v3.6
						c-1.1,0.6-2.3,1-3.9,1C268.1,74.3,265.8,72.9,265.8,68.7z"/>
				</g>
				<g>
					<path class="st0" d="M276.7,64.4L276.7,64.4c0-5.5,3.9-10,9.3-10c6.1,0,9.1,4.8,9.1,10.2c0,0.4,0,0.8-0.1,1.2h-14
						c0.5,3.1,2.7,4.8,5.5,4.8c2.1,0,3.6-0.8,5.2-2.3l2.6,2.3c-1.8,2.2-4.3,3.6-7.8,3.6C281,74.3,276.7,70.3,276.7,64.4z M290.8,63
						c-0.3-2.8-1.9-5-4.8-5c-2.7,0-4.5,2.1-4.9,5H290.8z"/>
				</g>
				<g>
					<path class="st0" d="M297.9,67V54.9h4.4v10.8c0,3,1.5,4.6,4.1,4.6c2.5,0,4.3-1.7,4.3-4.7V54.9h4.4v19h-4.4v-3
						c-1.2,1.8-3,3.4-5.9,3.4C300.4,74.3,297.9,71.4,297.9,67z"/>
				</g>
				<g>
					<g>
						<rect x="223.2" y="47.5" class="st0" width="4.3" height="17.3"/>
					</g>
					<g>
						<path class="st0" d="M232.7,74.3c-5.2,0-9.5-4.2-9.5-9.5c0-5.2,4.2-9.5,9.5-9.5s9.5,4.2,9.5,9.5
							C242.1,70.1,237.9,74.3,232.7,74.3z M232.7,59.7c-2.8,0-5.1,2.3-5.1,5.1c0,2.8,2.3,5.1,5.1,5.1s5.1-2.3,5.1-5.1
							C237.8,62,235.5,59.7,232.7,59.7z"/>
					</g>
				</g>
			</g>
			<g>
				<path class="st0" d="M207.8,73.9h-4.3V62.3c0-4.4,3.6-8,8-8v4.3c-2,0-3.6,1.6-3.6,3.6V73.9z"/>
			</g>
			<g>
				<path class="st0" d="M323,73.9h-4.3V62.3c0-4.4,3.6-8,8-8v4.3c-2,0-3.6,1.6-3.6,3.6V73.9z"/>
			</g>
			<g>
				<g>
					<path class="st0" d="M116.7,64.2L116.7,64.2c0-5.4,3.8-9.8,8.9-9.8c5.5,0,8.7,4.4,8.7,9.8c0,0.4,0,0.6,0,0.9h-14.8
						c0.4,4,3.2,6.3,6.6,6.3c2.6,0,4.4-1,5.9-2.6l1.7,1.5c-1.9,2.1-4.1,3.5-7.7,3.5C120.8,73.9,116.7,69.9,116.7,64.2z M131.5,63.1
						c-0.3-3.4-2.2-6.3-5.9-6.3c-3.2,0-5.7,2.7-6.1,6.3H131.5z"/>
				</g>
				<g>
					<g>
						<path class="st0" d="M107.9,68.6V49.7h2.8v18.5c0,2.3,1.3,3.1,3.1,3.1c0.9,0,1.7-0.2,2.7-0.6v2.4c-1,0.5-2,0.8-3.4,0.8
							C110.2,73.9,107.9,72.4,107.9,68.6z"/>
					</g>
				</g>
			</g>
			<g>
				<g>
					<path class="st1" d="M343,71.9L343,71.9c0-1.1,0.9-1.9,1.9-1.9c1,0,1.9,0.8,1.9,1.9v0c0,1-0.9,1.9-1.9,1.9S343,73,343,71.9z"/>
				</g>
			</g>
		</g>
	</g>
</g>
</svg>
